<svg width="15" height="15" fill="none" xmlns="http://www.w3.org/2000/svg"><path d="M4.25 6.15c0 .32-.26.59-.59.59-.33 0-.58-.26-.58-.59 0-.32.26-.59.59-.59.33 0 .58.27.58.59zm5.1 0a.591.591 0 00-1.18 0 .591.591 0 001.18 0zm2.54 0a.591.591 0 00-1.18 0 .591.591 0 001.18 0zM4.25 8.7c0-.32-.26-.59-.59-.59a.591.591 0 00.01 1.18c.33 0 .58-.27.58-.59zm-.59 1.96a.591.591 0 10.002 1.182.591.591 0 00-.002-1.182zM6.8 6.15c0-.32-.26-.59-.59-.59a.591.591 0 00.01 1.18c.33 0 .58-.26.58-.59zm0 2.55c0-.32-.26-.59-.59-.59a.591.591 0 00.01 1.18c.33 0 .58-.27.58-.59zm-.59 1.96a.591.591 0 10.59.59c0-.32-.27-.59-.59-.59zm8.79.8c0 1.95-1.59 3.54-3.54 3.54s-3.54-1.59-3.54-3.54 1.59-3.54 3.54-3.54A3.54 3.54 0 0115 11.46zm-1.17 0c0-1.31-1.06-2.37-2.37-2.37s-2.37 1.06-2.37 2.37 1.06 2.37 2.37 2.37 2.37-1.07 2.37-2.37zm-1.53-.59h-.26v-.62a.591.591 0 00-1.18 0v1.2c0 .32.26.59.59.59h.85c.32 0 .59-.26.59-.59 0-.33-.26-.58-.59-.58zm.36-9.7h-.76V.59a.591.591 0 00-1.18 0v.59H8.06V.59a.591.591 0 00-1.18 0v.59H4.25V.59c0-.33-.26-.59-.59-.59-.33 0-.58.26-.58.59v.59h-.74A2.33 2.33 0 000 3.52v9.14C0 13.95 1.05 15 2.34 15h4.48a.591.591 0 000-1.18H2.34c-.65 0-1.17-.53-1.17-1.17V3.52c0-.65.53-1.17 1.17-1.17h.73v.59a.591.591 0 001.18 0v-.6h2.64v.59a.591.591 0 001.18 0v-.59h2.67v.59a.591.591 0 001.18 0v-.59h.76c.65 0 1.17.53 1.17 1.17v3.34c0 .32.26.59.59.59.33 0 .56-.26.56-.58V3.52c0-1.3-1.05-2.35-2.34-2.35z" fill="#FF715B"/></svg>