<svg width="23" height="23" fill="none" xmlns="http://www.w3.org/2000/svg"><path d="M18.865 22.93c-.08 0-.17 0-.25-.01-3.23-.35-6.37-1.47-9.08-3.23-2.52-1.6-4.7-3.78-6.3-6.3a20.869 20.869 0 01-3.22-9.1c-.08-.82.16-1.6.68-2.21a3 3 0 012.03-1.07c.09-.01.18-.01.27-.01h3.03c1.48 0 2.75 1.1 2.96 2.58.12.89.34 1.76.65 2.6.41 1.09.15 2.33-.68 3.16l-.72.72c1.18 1.84 2.74 3.41 4.59 4.59l.72-.72c.83-.82 2.08-1.09 3.17-.68.83.31 1.71.53 2.59.64 1.51.21 2.62 1.52 2.59 3.03v2.99a3.005 3.005 0 01-2.99 3.01c-.02.01-.03.01-.04.01zM6.015 3c-.01 0-.01 0 0 0h-3.02c-.36.03-.6.15-.77.36-.17.2-.25.46-.23.73.31 2.91 1.32 5.75 2.92 8.22 1.45 2.28 3.42 4.25 5.7 5.7 2.46 1.6 5.3 2.6 8.2 2.92.35.04.59-.1.78-.29a.99.99 0 00.29-.71V16.9a.997.997 0 00-.86-1.01c-1.02-.13-2.04-.39-3.02-.75a1.01 1.01 0 00-1.06.22l-1.27 1.27a1 1 0 01-1.2.16 17.01 17.01 0 01-6.37-6.37 1 1 0 01.16-1.2l1.27-1.27c.27-.29.36-.7.22-1.07-.37-.98-.62-2-.76-3.03a.991.991 0 00-.98-.85zm11.87 6.95c-.47 0-.89-.33-.98-.81a3.966 3.966 0 00-3.16-3.16.999.999 0 01.38-1.96c2.41.47 4.27 2.33 4.74 4.74a.994.994 0 01-.79 1.17c-.07.01-.13.02-.19.02zm4-.01c-.5 0-.94-.38-.99-.89a7.968 7.968 0 00-7.07-7.06.998.998 0 01-.88-1.1c.06-.55.57-.95 1.1-.88 4.68.52 8.31 4.15 8.83 8.82.06.55-.33 1.04-.88 1.11h-.11z" fill="#FF715B"/></svg>