<svg width="203" height="60" fill="none" xmlns="http://www.w3.org/2000/svg"><path d="M201.103 52.916a5.746 5.746 0 01-5.753 5.746H7.095c-3.179 0-5.76-2.572-5.76-5.746V7.09a5.761 5.761 0 015.76-5.755H195.35a5.753 5.753 0 015.752 5.755l.002 45.826z" fill="#fff"/><path d="M195.35 60H7.095C3.185 60 0 56.823 0 52.916V7.091C0 3.181 3.184 0 7.095 0H195.35c3.907 0 7.095 3.18 7.095 7.091v45.826c.003 3.906-3.186 7.083-7.094 7.083z" fill="#FF715B"/><path d="M201.103 52.916a5.746 5.746 0 01-5.753 5.746H7.095c-3.179 0-5.76-2.572-5.76-5.746V7.09a5.761 5.761 0 015.76-5.755H195.35a5.753 5.753 0 015.752 5.755l.002 45.826z" fill="#FF715B"/><path d="M45.205 29.684c-.044-4.836 3.96-7.189 4.142-7.298-2.267-3.305-5.78-3.757-7.016-3.793-2.951-.31-5.814 1.766-7.317 1.766-1.534 0-3.849-1.736-6.344-1.685-3.21.05-6.214 1.909-7.862 4.796-3.4 5.886-.864 14.535 2.393 19.294 1.63 2.33 3.533 4.931 6.026 4.84 2.438-.1 3.349-1.554 6.29-1.554 2.916 0 3.771 1.554 6.313 1.495 2.617-.041 4.264-2.34 5.837-4.692 1.883-2.67 2.64-5.301 2.67-5.437-.062-.02-5.082-1.937-5.133-7.732zm-4.802-14.222c1.311-1.64 2.209-3.87 1.96-6.134-1.898.084-4.272 1.312-5.639 2.917-1.208 1.413-2.289 3.73-2.01 5.909 2.132.158 4.32-1.077 5.69-2.691zM80.52 47.269h-3.408l-1.867-5.865h-6.488l-1.778 5.865H63.66L70.09 27.3h3.97l6.46 19.968zm-5.837-8.326l-1.688-5.214c-.178-.533-.515-1.787-1.006-3.761h-.06c-.198.85-.515 2.104-.948 3.761l-1.66 5.214h5.362zm22.338.95c0 2.449-.665 4.384-1.996 5.806-1.19 1.264-2.672 1.896-4.438 1.896-1.907 0-3.278-.68-4.111-2.042v7.554h-3.199V37.603c0-1.538-.04-3.115-.118-4.732h2.813l.178 2.282h.06c1.067-1.72 2.686-2.58 4.859-2.58 1.698 0 3.116.671 4.25 2.014 1.133 1.346 1.702 3.114 1.702 5.306zm-3.259.117c0-1.402-.315-2.557-.948-3.468-.692-.946-1.62-1.42-2.785-1.42-.79 0-1.506.264-2.147.785-.642.525-1.062 1.21-1.258 2.06-.099.396-.148.719-.148.974v2.402c0 1.045.321 1.93.963 2.653.643.72 1.477 1.081 2.504 1.081 1.204 0 2.142-.466 2.813-1.392.67-.93 1.006-2.154 1.006-3.675zm19.819-.117c0 2.449-.665 4.384-1.995 5.806-1.193 1.264-2.673 1.896-4.44 1.896-1.908 0-3.278-.68-4.112-2.042v7.554h-3.198V37.603c0-1.538-.04-3.115-.119-4.732h2.814l.178 2.282h.06c1.065-1.72 2.684-2.58 4.858-2.58 1.697 0 3.115.671 4.252 2.014 1.132 1.346 1.702 3.114 1.702 5.306zm-3.26.117c0-1.402-.317-2.557-.95-3.468-.692-.946-1.617-1.42-2.782-1.42-.789 0-1.506.264-2.15.785-.642.525-1.061 1.21-1.257 2.06-.098.396-.15.719-.15.974v2.402c0 1.045.322 1.93.962 2.653.642.719 1.476 1.081 2.505 1.081 1.207 0 2.145-.466 2.813-1.392.673-.93 1.009-2.154 1.009-3.675zm21.775 1.658c0 1.7-.595 3.082-1.775 4.149-1.3 1.164-3.114 1.748-5.44 1.748-2.148 0-3.87-.414-5.17-1.244l.739-2.666c1.403.83 2.944 1.245 4.622 1.245 1.206 0 2.144-.273 2.813-.814.67-.544 1.01-1.27 1.01-2.176 0-.812-.281-1.492-.831-2.045-.554-.552-1.469-1.067-2.755-1.54-3.496-1.303-5.246-3.21-5.246-5.719 0-1.638.618-2.98 1.852-4.029 1.233-1.047 2.869-1.57 4.903-1.57 1.817 0 3.331.316 4.533.948l-.803 2.607c-1.131-.612-2.408-.918-3.837-.918-1.128 0-2.013.278-2.646.83-.533.494-.802 1.096-.802 1.81 0 .788.307 1.442.92 1.955.531.472 1.5.987 2.901 1.539 1.719.693 2.982 1.5 3.791 2.428.816.926 1.221 2.083 1.221 3.462zm10.603-6.396h-3.526v6.99c0 1.778.621 2.665 1.867 2.665.571 0 1.045-.048 1.421-.148l.088 2.429c-.63.236-1.46.354-2.487.354-1.264 0-2.251-.386-2.963-1.157-.71-.771-1.067-2.064-1.067-3.882v-7.257h-2.101v-2.4h2.101v-2.637l3.142-.948v3.584h3.526v2.407h-.001zm15.877 4.68c0 2.213-.633 4.03-1.896 5.45-1.322 1.463-3.081 2.192-5.273 2.192-2.116 0-3.797-.7-5.052-2.1-1.254-1.404-1.881-3.17-1.881-5.303 0-2.23.648-4.058 1.94-5.48 1.295-1.422 3.039-2.133 5.231-2.133 2.112 0 3.81.702 5.093 2.103 1.228 1.36 1.838 3.116 1.838 5.27zm-3.316.073c0-1.319-.285-2.45-.856-3.397-.671-1.143-1.631-1.715-2.875-1.715-1.281 0-2.264.572-2.933 1.715-.574.947-.859 2.097-.859 3.457 0 1.32.285 2.455.859 3.399.691 1.143 1.657 1.715 2.906 1.715 1.223 0 2.182-.584 2.875-1.743.588-.97.883-2.11.883-3.43zm13.719-4.341a5.592 5.592 0 00-1.008-.088c-1.126 0-1.996.423-2.608 1.275-.531.75-.798 1.698-.798 2.843v7.555h-3.199v-9.863c0-1.658-.031-3.17-.093-4.533h2.786l.118 2.755h.088c.339-.947.871-1.71 1.599-2.282.713-.514 1.482-.77 2.312-.77.296 0 .563.02.8.057l.003 3.051zm14.306 3.705c0 .573-.037 1.056-.117 1.45h-9.597c.036 1.424.501 2.513 1.392 3.263.809.67 1.855 1.005 3.139 1.005 1.421 0 2.717-.225 3.883-.68l.501 2.219c-1.362.594-2.971.89-4.827.89-2.233 0-3.985-.658-5.26-1.969-1.273-1.312-1.911-3.077-1.911-5.287 0-2.17.593-3.977 1.779-5.42 1.243-1.539 2.922-2.31 5.034-2.31 2.075 0 3.646.771 4.713 2.31.847 1.22 1.271 2.733 1.271 4.529zm-3.05-.83c.022-.95-.188-1.768-.621-2.46-.554-.891-1.406-1.335-2.548-1.335-1.045 0-1.898.433-2.546 1.304-.533.691-.849 1.523-.946 2.488l6.661.003zM73.14 20.155h-1.676l-.917-2.882H67.36l-.874 2.882h-1.631l3.16-9.815h1.95l3.176 9.815zm-2.869-4.091l-.83-2.563c-.086-.262-.248-.873-.495-1.849h-.03c-.102.422-.247 1.034-.466 1.849l-.815 2.563h2.636zm10.77-2.985l-2.68 7.076h-1.528l-2.593-7.076h1.69l1.208 3.742c.204.626.378 1.223.509 1.79h.043c.118-.509.291-1.107.509-1.79l1.195-3.742h1.647zm5.705 7.076l-.117-.815h-.044c-.48.656-1.179.975-2.067.975-1.267 0-2.17-.888-2.17-2.083 0-1.746 1.515-2.65 4.135-2.65v-.13c0-.932-.495-1.398-1.47-1.398-.7 0-1.312.176-1.85.525l-.32-1.034c.657-.409 1.471-.613 2.433-.613 1.848 0 2.781.975 2.781 2.928v2.606c0 .714.03 1.268.102 1.689h-1.413zm-.22-3.524c-1.747 0-2.62.423-2.62 1.427 0 .742.451 1.106 1.077 1.106.8 0 1.544-.61 1.544-1.441v-1.092zm5.034-4.717a.924.924 0 01-.932-.947c0-.539.422-.932.962-.932.539 0 .975.393.96.932.002.569-.406.947-.99.947zm.817 8.24h-1.573V13.08h1.573v7.076zm4.366 0H95.17V9.834h1.573v10.322zm6.683 0l-.117-.814h-.044c-.48.656-1.179.975-2.067.975-1.267 0-2.17-.888-2.17-2.083 0-1.746 1.514-2.65 4.135-2.65v-.13c0-.932-.495-1.398-1.471-1.398-.698 0-1.311.176-1.848.525l-.321-1.035c.656-.408 1.471-.612 2.432-.612 1.849 0 2.781.974 2.781 2.927v2.606c0 .714.032 1.268.101 1.689h-1.411zm-.219-3.523c-1.749 0-2.622.423-2.622 1.427 0 .742.452 1.106 1.077 1.106.801 0 1.545-.61 1.545-1.441v-1.092zm7.902 3.685c-1.005 0-1.746-.424-2.226-1.253h-.031l-.09 1.093h-1.34c.043-.567.058-1.21.058-1.907V9.833h1.574v4.282h.03c.467-.787 1.221-1.18 2.257-1.18 1.705 0 2.899 1.457 2.899 3.582-.001 2.196-1.327 3.799-3.131 3.799zm-.32-6.146c-.905 0-1.733.786-1.733 1.878v1.239c0 .975.744 1.776 1.706 1.776 1.177 0 1.879-.96 1.879-2.489-.003-1.427-.732-2.404-1.852-2.404zm7.347 5.985h-1.571V9.833h1.571v10.322zm8.56-3.16h-4.72c.031 1.34.917 2.096 2.228 2.096.698 0 1.34-.118 1.907-.335l.244 1.093c-.669.29-1.455.436-2.372.436-2.214 0-3.524-1.398-3.524-3.566 0-2.17 1.342-3.8 3.348-3.8 1.805 0 2.942 1.34 2.942 3.363a3.01 3.01 0 01-.053.713zm-1.442-1.12c0-1.093-.554-1.864-1.559-1.864-.904 0-1.615.786-1.719 1.863h3.278zm10.972 4.441c-2.067 0-3.407-1.544-3.407-3.64 0-2.185 1.368-3.742 3.526-3.742 2.035 0 3.407 1.47 3.407 3.626 0 2.212-1.413 3.756-3.526 3.756zm.06-6.233c-1.136 0-1.863 1.063-1.863 2.548 0 1.456.743 2.519 1.849 2.519 1.106 0 1.847-1.136 1.847-2.55.001-1.44-.727-2.517-1.833-2.517zm11.92 6.072h-1.571V16.09c0-1.25-.481-1.878-1.427-1.878-.932 0-1.575.8-1.575 1.733v4.208h-1.571V15.1c0-.626-.016-1.296-.058-2.024h1.383l.074 1.093h.044c.42-.757 1.281-1.238 2.241-1.238 1.484 0 2.46 1.136 2.46 2.984v4.239zm10.288-5.896h-1.73v3.436c0 .874.305 1.31.915 1.31.278 0 .512-.03.699-.073l.044 1.195c-.306.117-.716.175-1.221.175-1.239 0-1.98-.684-1.98-2.475v-3.568h-1.032v-1.18h1.032v-1.296l1.543-.467v1.761h1.73v1.182zm8.328 5.896h-1.575v-4.033c0-1.266-.48-1.907-1.426-1.907-.815 0-1.571.554-1.571 1.675v4.266h-1.575V9.833h1.575v4.25h.03c.494-.77 1.209-1.15 2.125-1.15 1.499 0 2.416 1.164 2.416 3.013v4.209h.001zm8.034-3.16h-4.718c.03 1.34.915 2.096 2.227 2.096.7 0 1.339-.118 1.907-.335l.246 1.093c-.67.29-1.457.436-2.374.436-2.214 0-3.524-1.398-3.524-3.566 0-2.17 1.342-3.8 3.348-3.8 1.805 0 2.942 1.34 2.942 3.363a3.11 3.11 0 01-.054.713zm-1.442-1.12c0-1.093-.552-1.864-1.557-1.864-.905 0-1.617.786-1.719 1.863h3.276z" fill="#fff"/></svg>