<svg width="204" height="60" fill="none" xmlns="http://www.w3.org/2000/svg"><path d="M195.644 60H7.524C3.312 60 0 56.7 0 52.5v-45C0 3.3 3.31 0 7.525 0h188.118c4.214 0 7.525 3.3 7.525 7.5v45c0 4.2-3.311 7.5-7.524 7.5z" fill="#2C2C2C"/><path d="M195.644 1.2c3.461 0 6.321 2.85 6.321 6.3v45c0 3.45-2.86 6.3-6.321 6.3H7.524c-3.46 0-6.32-2.85-6.32-6.3v-45c0-3.45 2.86-6.3 6.32-6.3h188.12zm0-1.2H7.524C3.312 0 0 3.45 0 7.5v45C0 56.7 3.31 60 7.525 60h188.118c4.214 0 7.525-3.3 7.525-7.5v-45c0-4.05-3.311-7.5-7.524-7.5z" fill="#2C2C2C"/><path d="M71.335 15.3c0 1.2-.3 2.25-1.053 3-.903.9-1.956 1.35-3.311 1.35s-2.408-.45-3.311-1.35c-.903-.9-1.355-1.95-1.355-3.3 0-1.35.452-2.4 1.355-3.3.903-.9 1.956-1.35 3.31-1.35.603 0 1.204.15 1.806.45.603.3 1.054.6 1.355 1.05l-.752.75c-.603-.75-1.355-1.05-2.408-1.05-.903 0-1.806.3-2.408 1.05-.753.6-1.053 1.5-1.053 2.55 0 1.05.3 1.95 1.053 2.55.752.6 1.505 1.05 2.408 1.05 1.053 0 1.805-.3 2.558-1.05.452-.45.753-1.05.753-1.8H66.97v-1.2h4.364v.6zm6.922-3.75h-4.063v2.85h3.763v1.05h-3.763v2.85h4.063v1.2H72.99v-9h5.267v1.05zm4.966 7.95H82.02v-7.95h-2.558V10.5h6.32v1.05h-2.558v7.95h0zm6.924 0v-9h1.203v9h-1.203zm6.32 0h-1.203v-7.95h-2.558V10.5h6.17v1.05h-2.558v7.95h.15zm14.297-1.2c-.903.9-1.956 1.35-3.311 1.35-1.354 0-2.408-.45-3.311-1.35-.902-.9-1.354-1.95-1.354-3.3 0-1.35.452-2.4 1.354-3.3.903-.9 1.957-1.35 3.311-1.35 1.355 0 2.408.45 3.311 1.35.903.9 1.355 1.95 1.355 3.3 0 1.35-.452 2.4-1.355 3.3zm-5.719-.75c.602.6 1.505 1.05 2.408 1.05s1.806-.3 2.408-1.05c.602-.6 1.053-1.5 1.053-2.55 0-1.05-.3-1.95-1.053-2.55-.602-.6-1.505-1.05-2.408-1.05s-1.806.3-2.408 1.05c-.602.6-1.053 1.5-1.053 2.55 0 1.05.301 1.95 1.053 2.55zm8.729 1.95v-9h1.355l4.364 7.05V10.5h1.204v9h-1.204l-4.666-7.35v7.35h-1.053z" fill="#fff" stroke="#fff" stroke-width=".2" stroke-miterlimit="10"/><path d="M102.487 32.7c-3.611 0-6.471 2.7-6.471 6.45 0 3.6 2.86 6.45 6.471 6.45 3.612 0 6.471-2.7 6.471-6.45 0-3.9-2.859-6.45-6.471-6.45zm0 10.2c-1.956 0-3.611-1.65-3.611-3.9s1.655-3.9 3.611-3.9c1.956 0 3.612 1.5 3.612 3.9 0 2.25-1.655 3.9-3.612 3.9zM88.491 32.7c-3.611 0-6.471 2.7-6.471 6.45 0 3.6 2.86 6.45 6.471 6.45 3.612 0 6.472-2.7 6.472-6.45 0-3.9-2.86-6.45-6.472-6.45zm0 10.2c-1.956 0-3.611-1.65-3.611-3.9s1.655-3.9 3.611-3.9c1.956 0 3.612 1.5 3.612 3.9 0 2.25-1.656 3.9-3.612 3.9zm-16.705-8.25v2.7h6.471c-.15 1.5-.752 2.7-1.505 3.45-.903.9-2.408 1.95-4.966 1.95-4.064 0-7.074-3.15-7.074-7.2 0-4.05 3.162-7.2 7.074-7.2 2.107 0 3.763.9 4.966 1.95l1.957-1.95c-1.655-1.5-3.763-2.7-6.772-2.7-5.418 0-10.083 4.5-10.083 9.9s4.666 9.9 10.083 9.9c3.01 0 5.117-.9 6.923-2.85 1.806-1.8 2.408-4.35 2.408-6.3 0-.6 0-1.2-.15-1.65h-9.332zm68.325 2.1c-.603-1.5-2.108-4.05-5.419-4.05-3.31 0-6.019 2.55-6.019 6.45 0 3.6 2.709 6.45 6.321 6.45 2.86 0 4.666-1.8 5.267-2.85l-2.107-1.5c-.752 1.05-1.655 1.8-3.16 1.8-1.505 0-2.408-.6-3.161-1.95l8.579-3.6-.301-.75zm-8.729 2.1c0-2.4 1.957-3.75 3.311-3.75 1.054 0 2.108.6 2.408 1.35l-5.719 2.4zM124.309 45h2.86V26.25h-2.86V45zm-4.515-10.95c-.753-.75-1.956-1.5-3.461-1.5-3.161 0-6.171 2.85-6.171 6.45s2.86 6.3 6.171 6.3c1.505 0 2.708-.75 3.31-1.5h.151v.9c0 2.4-1.355 3.75-3.461 3.75-1.656 0-2.86-1.2-3.161-2.25l-2.408 1.05c.753 1.65 2.558 3.75 5.719 3.75 3.311 0 6.019-1.95 6.019-6.6V33h-2.708v1.05zm-3.311 8.85c-1.956 0-3.612-1.65-3.612-3.9s1.656-3.9 3.612-3.9c1.956 0 3.461 1.65 3.461 3.9s-1.504 3.9-3.461 3.9zm36.721-16.65h-6.772V45h2.86v-7.05h3.913c3.161 0 6.171-2.25 6.171-5.85 0-3.6-3.012-5.85-6.172-5.85zm.151 9h-4.064V28.8h4.064c2.107 0 3.311 1.8 3.311 3.15-.151 1.65-1.355 3.3-3.311 3.3zm17.306-2.7c-2.107 0-4.213.9-4.966 2.85l2.558 1.05c.603-1.05 1.506-1.35 2.559-1.35 1.505 0 2.86.9 3.01 2.4v.15c-.452-.3-1.656-.75-2.86-.75-2.709 0-5.418 1.5-5.418 4.2 0 2.55 2.258 4.2 4.666 4.2 1.956 0 2.859-.9 3.611-1.8h.15V45h2.709v-7.2c-.3-3.3-2.858-5.25-6.019-5.25zm-.3 10.35c-.903 0-2.258-.45-2.258-1.65 0-1.5 1.656-1.95 3.01-1.95 1.204 0 1.806.3 2.559.6-.302 1.8-1.807 3-3.311 3zm15.801-9.9l-3.16 8.1h-.151l-3.31-8.1h-3.01l4.966 11.4-2.86 6.3h2.86l7.675-17.7h-3.01zm-25.283 12h2.86V26.25h-2.86V45z" fill="#fff"/><path d="M15.651 11.25c-.452.45-.602 1.2-.602 2.1V46.5c0 .9.3 1.65.753 2.1l.15.15 18.661-18.6v-.3l-18.962-18.6z" fill="url(#paint0_linear)"/><path d="M40.634 36.45l-6.171-6.15v-.45l6.17-6.15.151.15 7.374 4.2c2.108 1.2 2.108 3.15 0 4.35l-7.524 4.05z" fill="url(#paint1_linear)"/><path d="M40.784 36.3L34.463 30 15.651 48.75c.753.75 1.806.75 3.16.15l21.973-12.6z" fill="url(#paint2_linear)"/><path d="M40.784 23.7L18.812 11.25c-1.355-.75-2.408-.6-3.16.15L34.462 30l6.321-6.3z" fill="url(#paint3_linear)"/><path opacity=".2" d="M40.634 36.15l-21.822 12.3c-1.204.75-2.258.6-3.01 0l-.15.15.15.15c.752.6 1.805.75 3.01 0l21.822-12.6z" fill="#000"/><path opacity=".12" d="M15.651 48.45c-.452-.45-.602-1.2-.602-2.1v.15c0 .9.3 1.65.753 2.1v-.15h-.15zm32.507-16.5l-7.524 4.2.15.15 7.374-4.2c1.053-.6 1.505-1.35 1.505-2.1 0 .75-.602 1.35-1.505 1.95z" fill="#000"/><path opacity=".25" d="M18.812 11.4l29.346 16.65c.903.6 1.505 1.2 1.505 1.95 0-.75-.452-1.5-1.505-2.1L18.812 11.25c-2.108-1.2-3.763-.3-3.763 2.1v.15c0-2.25 1.656-3.3 3.763-2.1z" fill="#fff"/><defs><linearGradient id="paint0_linear" x1="32.799" y1="13.057" x2="7.625" y2="38.313" gradientUnits="userSpaceOnUse"><stop stop-color="#00A0FF"/><stop offset=".007" stop-color="#00A1FF"/><stop offset=".26" stop-color="#00BEFF"/><stop offset=".512" stop-color="#00D2FF"/><stop offset=".76" stop-color="#00DFFF"/><stop offset="1" stop-color="#00E3FF"/></linearGradient><linearGradient id="paint1_linear" x1="50.917" y1="30.075" x2="14.502" y2="30.075" gradientUnits="userSpaceOnUse"><stop stop-color="#FFE000"/><stop offset=".409" stop-color="#FFBD00"/><stop offset=".775" stop-color="orange"/><stop offset="1" stop-color="#FF9C00"/></linearGradient><linearGradient id="paint2_linear" x1="37.344" y1="33.426" x2="3.208" y2="67.675" gradientUnits="userSpaceOnUse"><stop stop-color="#FF3A44"/><stop offset="1" stop-color="#C31162"/></linearGradient><linearGradient id="paint3_linear" x1="10.927" y1=".316" x2="26.171" y2="15.611" gradientUnits="userSpaceOnUse"><stop stop-color="#32A071"/><stop offset=".069" stop-color="#2DA771"/><stop offset=".476" stop-color="#15CF74"/><stop offset=".801" stop-color="#06E775"/><stop offset="1" stop-color="#00F076"/></linearGradient></defs></svg>