<svg width="25" height="25" fill="none" xmlns="http://www.w3.org/2000/svg"><path d="M12.47 0C5.63 0 0 5.643 0 12.5S5.63 25 12.47 25C19.31 25 25 19.418 25 12.5 25 5.583 19.37 0 12.47 0zm10.17 11.408H18.1a18.02 18.02 0 00-3.027-8.738c4.055 1.031 7.082 4.49 7.566 8.738zm-13.5 2.245h6.66a16.768 16.768 0 01-3.33 8.495 16.769 16.769 0 01-3.329-8.495zm0-2.245a16.768 16.768 0 013.33-8.495c1.876 2.487 3.087 5.4 3.329 8.495H9.14zm.787-8.799a18.02 18.02 0 00-3.026 8.738H2.36C2.784 7.16 5.87 3.701 9.927 2.61zM2.361 13.653H6.9a18.02 18.02 0 003.026 8.738c-4.055-1.032-7.143-4.49-7.566-8.738zm12.712 8.798a18.02 18.02 0 003.026-8.737h4.54c-.484 4.187-3.51 7.645-7.566 8.737z" fill="#65CE54"/></svg>