<svg width="25" height="25" fill="none" xmlns="http://www.w3.org/2000/svg"><path d="M12.5 0C5.612 0 0 5.612 0 12.5v8.75A3.761 3.761 0 003.75 25H5a3.761 3.761 0 003.75-3.75V17.5A3.761 3.761 0 005 13.75H2.5V12.5c0-5.513 4.487-10 10-10 5.512 0 10 4.487 10 10v1.25H20a3.761 3.761 0 00-3.75 3.75v3.75A3.761 3.761 0 0020 25h1.25A3.761 3.761 0 0025 21.25V12.5C25 5.612 19.387 0 12.5 0zM5 16.25c.688 0 1.25.563 1.25 1.25v3.75c0 .688-.563 1.25-1.25 1.25H3.75c-.688 0-1.25-.563-1.25-1.25v-5H5zm17.5 5c0 .688-.563 1.25-1.25 1.25H20c-.688 0-1.25-.563-1.25-1.25V17.5c0-.688.563-1.25 1.25-1.25h2.5v5z" fill="#FFC01E"/></svg>